<?xml version="1.0" standalone="no"?>
<!DOCTYPE svg PUBLIC "-//W3C//DTD SVG 20010904//EN"
 "http://www.w3.org/TR/2001/REC-SVG-20010904/DTD/svg10.dtd">
<svg version="1.0" xmlns="http://www.w3.org/2000/svg"
 width="506.000000pt" height="506.000000pt" viewBox="0 0 506.000000 506.000000"
 preserveAspectRatio="xMidYMid meet">
<metadata>
Created by potrace 1.14, written by Peter Selinger 2001-2017
</metadata>
<g transform="translate(0.000000,506.000000) scale(0.100000,-0.100000)"
fill="#000000" stroke="none">
<path d="M1686 4819 c-10 -54 -7 -89 8 -89 12 0 13 12 9 58 -7 69 -9 72 -17
31z"/>
<path d="M1670 4712 c-16 -5 -49 -42 -50 -54 0 -5 32 -8 70 -8 39 0 70 3 70 8
0 32 -54 65 -90 54z"/>
<path d="M1551 4622 c-6 -2 -11 -19 -11 -39 0 -28 3 -33 18 -29 75 22 151 25
222 10 30 -7 58 -10 61 -8 4 2 6 19 5 36 l-2 32 -142 1 c-77 0 -146 -1 -151
-3z"/>
<path d="M1573 4508 c-40 -8 -43 -12 -44 -41 0 -43 0 -1369 0 -1428 1 -47 1
-47 34 -43 17 1 68 5 112 8 124 8 165 16 166 35 5 95 0 1453 -5 1458 -10 11
-33 13 -131 17 -49 1 -109 -1 -132 -6z"/>
<path d="M1390 4461 c-42 -15 -85 -33 -96 -39 -20 -10 -20 -20 -19 -714 l0
-703 50 -5 c28 -3 78 -5 110 -5 l60 0 0 745 c0 654 -2 745 -15 747 -8 1 -49
-10 -90 -26z"/>
<path d="M1875 3760 l0 -732 40 6 c22 2 63 10 90 16 59 14 78 18 86 19 3 1 5
303 5 673 l-1 672 -81 33 c-45 18 -95 36 -111 39 l-28 6 0 -732z"/>
<path d="M1196 4363 c-3 -4 -6 -15 -6 -25 0 -14 -6 -19 -22 -16 -13 2 -23 10
-23 18 0 8 -8 16 -17 18 -12 2 -18 -3 -18 -17 0 -14 -6 -19 -20 -18 -12 1 -20
8 -20 19 0 11 -7 18 -20 18 -15 0 -20 -7 -20 -29 0 -16 6 -31 13 -33 6 -3 50
-4 97 -3 l85 1 3 31 c3 29 -17 51 -32 36z"/>
<path d="M1033 4258 c2 -8 23 -13 55 -13 29 0 52 -2 52 -6 0 -4 -24 -15 -52
-25 -32 -12 -54 -26 -56 -36 -3 -15 7 -17 95 -15 59 1 97 6 95 12 -1 6 -27 10
-57 10 -63 0 -69 7 -22 24 53 20 80 35 85 49 3 9 -21 12 -98 12 -77 0 -101 -3
-97 -12z"/>
<path d="M1035 4132 c-17 -17 5 -22 96 -22 76 0 100 3 97 13 -3 8 -33 12 -96
13 -50 1 -94 -1 -97 -4z"/>
<path d="M1190 4070 c0 -17 -8 -19 -77 -22 -47 -2 -78 -7 -80 -15 -3 -8 23
-11 94 -10 l98 2 3 33 c3 27 0 32 -17 32 -14 0 -21 -6 -21 -20z"/>
<path d="M1032 3913 c2 -35 7 -47 21 -49 11 -1 17 4 17 18 0 16 6 19 33 18 82
-5 127 0 127 14 0 10 -18 13 -77 12 -65 -1 -77 1 -81 16 -2 10 -13 18 -24 18
-17 0 -19 -6 -16 -47z"/>
<path d="M2170 3931 c-14 -1 -27 -7 -30 -11 -3 -5 -5 -199 -5 -431 l0 -422
-30 -13 c-27 -11 -73 -20 -142 -29 -12 -2 -26 -6 -31 -9 -4 -3 -37 -8 -72 -11
-35 -3 -67 -8 -71 -10 -12 -8 -202 -19 -324 -19 -209 1 -355 23 -525 80 -77
26 -262 122 -318 164 -29 22 -55 40 -58 40 -9 0 176 -179 216 -209 19 -14 37
-28 40 -31 8 -9 140 -94 190 -123 118 -68 325 -138 460 -155 104 -13 400 -7
482 11 218 47 385 119 833 357 154 82 434 194 635 254 111 33 314 83 365 91
22 3 47 7 55 10 67 18 350 41 484 38 150 -2 364 -25 414 -44 39 -15 23 0 -28
26 -59 30 -206 71 -288 80 -31 4 -68 9 -82 11 -31 5 -253 5 -300 0 -19 -2 -68
-7 -109 -10 -40 -4 -92 -10 -115 -15 -22 -5 -63 -12 -91 -16 -193 -24 -686
-157 -850 -230 -62 -28 -193 -77 -200 -76 -3 1 -18 -5 -35 -14 -16 -8 -31 -15
-35 -15 -3 0 -5 150 -5 333 l0 333 -84 22 c-46 12 -90 22 -98 22 -12 0 -14
-55 -14 -372 1 -205 0 -381 -3 -390 -2 -10 -11 -18 -20 -18 -16 0 -18 28 -17
391 1 338 -1 392 -14 399 -17 9 -141 17 -180 11z"/>
<path d="M1155 3859 c-16 -5 -48 -11 -70 -15 -47 -7 -55 -11 -55 -29 0 -14 17
-22 62 -30 13 -3 47 -10 76 -16 28 -7 55 -10 58 -6 10 10 -6 27 -27 27 -29 0
-25 38 6 50 14 5 25 14 25 20 0 12 -33 12 -75 -1z m-5 -45 c0 -7 -8 -11 -17
-9 -10 2 -25 4 -33 5 -10 1 -9 4 5 9 28 11 45 9 45 -5z"/>
<path d="M1070 3742 c-22 -6 -40 -33 -40 -59 0 -13 6 -23 13 -24 6 -1 51 -2
99 -3 73 -1 88 2 88 14 0 12 -10 15 -35 15 -45 -2 -56 13 -16 21 32 7 59 30
48 41 -4 3 -26 -1 -49 -10 -23 -9 -44 -13 -47 -9 -8 12 -43 20 -61 14z m45
-52 c-8 -13 -45 -7 -45 6 0 7 6 14 13 17 15 5 39 -12 32 -23z"/>
<path d="M1145 3629 c-143 -31 -150 -48 -30 -78 46 -11 91 -21 100 -21 21 0
14 24 -10 30 -30 9 -31 38 -1 50 14 5 26 14 26 20 0 12 -29 12 -85 -1z m5 -39
c0 -15 -19 -22 -41 -15 -13 5 -17 10 -11 14 17 10 52 11 52 1z"/>
<path d="M2664 3572 c-21 -3 -21 -8 -22 -162 0 -88 3 -162 7 -164 8 -5 94 25
184 62 l38 16 -3 120 c-3 119 -3 119 -28 122 -44 6 -154 9 -176 6z"/>
<path d="M2910 3451 l0 -108 103 34 102 33 -3 50 c-4 56 4 50 -139 84 l-63 14
0 -107z"/>
<path d="M1034 3511 c-14 -14 1 -31 39 -44 l42 -14 -42 -12 c-32 -9 -43 -17
-43 -31 0 -17 8 -19 98 -17 61 1 95 6 92 12 -3 6 -29 10 -57 9 -58 -1 -71 13
-23 23 41 8 38 27 -7 40 -37 10 -36 11 30 12 67 1 96 20 35 22 -90 4 -160 4
-164 0z"/>
<path d="M1196 3373 c-3 -4 -6 -15 -6 -25 0 -13 -7 -18 -25 -18 -19 0 -25 5
-23 17 2 10 -4 19 -14 21 -13 2 -18 -3 -18 -17 0 -14 -6 -21 -20 -21 -13 0
-20 7 -20 20 0 13 -7 20 -20 20 -16 0 -20 -7 -20 -33 l0 -34 98 -1 97 -1 2 34
c2 31 -16 53 -31 38z"/>
<path d="M1190 3220 c0 -22 0 -22 -92 -22 -53 1 -68 -2 -68 -13 0 -12 19 -15
99 -15 l99 0 0 35 c0 28 -4 35 -19 35 -12 0 -19 -7 -19 -20z"/>
<path d="M1145 3139 c-93 -20 -116 -30 -113 -47 2 -10 17 -19 38 -23 19 -4 61
-12 93 -19 33 -6 61 -9 64 -6 9 9 -8 26 -25 26 -12 0 -18 9 -20 25 -1 19 3 25
17 25 10 0 21 7 25 15 6 17 -15 18 -79 4z m5 -45 c0 -11 -5 -14 -16 -10 -9 3
-25 7 -37 7 -17 1 -15 3 8 9 45 11 45 11 45 -6z"/>
<path d="M1050 2259 l0 -110 33 3 32 3 0 108 1 107 -33 0 -33 0 0 -111z"/>
<path d="M1165 2263 c1 -93 -2 -108 -19 -125 -20 -18 -26 -20 -79 -21 -25 -1
-28 -4 -25 -32 3 -32 2 -32 101 -26 12 0 38 14 57 29 l34 29 0 126 1 127 -35
0 -36 0 1 -107z"/>
<path d="M1784 2213 l2 -158 25 1 c13 1 29 2 34 3 6 1 9 36 9 89 -1 48 -2 117
-3 155 l-1 67 -34 0 -34 0 2 -157z"/>
<path d="M2096 2229 c1 -116 4 -143 18 -157 14 -14 39 -17 162 -17 140 1 145
2 169 26 67 67 19 164 -78 161 -52 -2 -79 -28 -86 -83 l-6 -42 -48 -1 c-27 -1
-52 3 -55 9 -4 5 -8 53 -9 105 -1 52 -2 105 -2 118 -1 18 -7 22 -34 22 l-33 0
2 -141z m302 -51 c17 -17 15 -43 -4 -59 -31 -25 -68 27 -42 58 13 16 30 17 46
1z"/>
<path d="M2535 2260 l0 -110 26 0 c38 0 46 17 43 85 -1 33 -3 77 -3 98 -1 35
-3 37 -34 37 l-33 0 1 -110z"/>
<path d="M2650 2262 c0 -125 -8 -141 -78 -144 -42 -1 -55 -17 -43 -49 7 -19
83 -19 130 0 57 24 64 47 62 209 l-1 92 -35 0 -35 0 0 -108z"/>
<path d="M2785 2218 c2 -84 3 -156 4 -161 1 -10 53 0 60 12 3 5 5 75 3 155
l-3 146 -33 0 -34 0 3 -152z"/>
<path d="M3027 2350 c-6 -22 9 -35 38 -35 14 0 21 8 23 28 3 24 0 27 -26 27
-21 0 -31 -6 -35 -20z"/>
<path d="M3110 2340 c0 -26 3 -29 23 -26 12 3 25 5 30 5 4 1 7 12 7 26 0 21
-5 25 -30 25 -27 0 -30 -3 -30 -30z"/>
<path d="M4256 2345 c-8 -9 -13 -22 -10 -30 4 -8 1 -15 -5 -15 -5 0 -15 -8
-20 -18 -9 -17 -5 -19 50 -20 56 -1 59 0 49 19 -6 10 -17 19 -25 19 -8 0 -15
6 -15 14 0 9 7 12 20 9 24 -6 28 22 4 31 -23 9 -31 8 -48 -9z"/>
<path d="M614 2342 c-16 -2 -20 -9 -16 -31 3 -24 8 -27 32 -23 21 3 28 9 28
27 0 26 -12 33 -44 27z"/>
<path d="M1478 2292 c-8 -28 6 -44 33 -40 18 2 24 9 24 28 0 20 -6 26 -26 28
-19 2 -28 -2 -31 -16z"/>
<path d="M1560 2281 c0 -27 3 -31 29 -31 24 0 28 4 27 28 -1 22 -6 28 -28 30
-25 3 -28 0 -28 -27z"/>
<path d="M3036 2267 c-45 -15 -56 -101 -17 -140 10 -11 34 -20 52 -20 22 -1
41 -10 55 -26 21 -24 26 -25 175 -27 105 -1 162 2 180 11 21 10 30 9 45 -2 20
-14 78 -10 99 7 7 6 16 5 23 -2 17 -17 287 -19 310 -2 13 9 21 9 38 -3 34 -22
100 -4 113 31 5 11 8 48 7 81 -1 60 -1 60 -34 63 l-32 3 0 -54 c0 -36 -5 -59
-15 -67 -26 -21 -45 5 -45 61 l0 48 -35 -1 -34 -1 -3 -55 c-2 -31 -8 -57 -14
-59 -23 -8 -44 28 -44 73 0 45 0 45 -32 42 -33 -3 -33 -4 -33 -56 0 -28 -4
-52 -10 -53 -53 -6 -119 1 -126 12 -5 8 -9 35 -9 62 l0 47 -35 0 -35 0 0 -59
c0 -33 -4 -63 -10 -66 -13 -8 -51 13 -49 28 1 7 1 29 0 50 -1 37 -2 38 -33 35
-32 -3 -33 -5 -38 -57 -4 -42 -9 -55 -22 -57 -23 -3 -30 10 -34 60 -1 23 -3
45 -3 49 -1 5 -16 7 -33 5 -32 -3 -33 -5 -34 -48 -1 -25 -2 -50 -3 -55 -1 -9
-90 -12 -133 -6 -5 1 -8 37 -8 80 l0 80 -60 -2 c-33 -1 -71 -6 -84 -10z m72
-80 c3 -21 -1 -27 -17 -27 -25 0 -34 14 -26 41 10 29 39 20 43 -14z"/>
<path d="M4533 2238 c-36 -9 -63 -49 -63 -93 0 -14 -3 -26 -7 -26 -5 -1 -25
-2 -47 -3 -30 -1 -40 2 -46 19 -4 11 -5 24 -3 28 9 16 -19 55 -48 67 -84 35
-170 -45 -132 -122 12 -24 66 -63 77 -56 2 2 8 0 12 -4 4 -4 -14 -17 -39 -28
-42 -19 -46 -23 -34 -41 6 -10 20 -22 29 -25 27 -8 87 25 114 65 l24 36 114 0
c123 0 156 10 175 52 19 41 13 77 -16 105 -33 30 -65 38 -110 26z m-235 -89
c3 -34 1 -36 -22 -32 -15 3 -27 9 -27 14 -1 5 -2 15 -3 22 -3 19 15 38 33 35
10 -2 17 -16 19 -39z m298 26 c4 -8 3 -27 0 -41 -5 -19 -12 -25 -29 -22 -22 3
-34 35 -23 64 7 19 45 18 52 -1z"/>
<path d="M490 2146 c0 -103 11 -135 59 -171 19 -15 42 -20 83 -20 51 0 60 3
92 34 20 19 36 42 36 51 0 13 15 15 94 15 125 0 136 9 136 112 l0 73 -35 0
-35 0 0 -60 c0 -41 -4 -60 -12 -61 -54 -6 -113 -3 -125 7 -10 7 -16 29 -17 60
-1 48 -2 49 -33 52 l-33 3 0 -88 c-1 -114 -16 -138 -87 -134 -39 2 -54 40 -55
135 l-1 86 -33 0 -34 0 0 -94z"/>
<path d="M1376 2208 c15 -127 56 -156 216 -153 124 2 128 5 128 106 l0 79 -35
0 -34 0 -3 -62 -3 -62 -69 -1 c-72 -1 -125 20 -127 50 -1 8 -3 20 -4 25 -1 6
-3 19 -4 30 -1 16 -8 20 -35 20 -33 0 -34 -1 -30 -32z"/>
<path d="M1960 2157 c0 -95 -11 -116 -75 -143 l-37 -15 23 -25 c26 -27 51 -26
96 3 44 29 63 83 63 178 l0 85 -35 0 -35 0 0 -83z"/>
<path d="M2552 2028 c-6 -6 -12 -18 -12 -25 0 -7 -4 -13 -10 -13 -5 0 -10 -8
-10 -18 0 -14 9 -18 45 -18 36 0 45 4 45 18 0 11 -7 18 -20 18 -11 0 -20 5
-20 10 0 6 9 10 21 10 26 0 20 24 -7 28 -11 1 -25 -3 -32 -10z"/>
<path d="M840 1991 c0 -28 3 -31 31 -31 27 0 30 3 27 28 -2 21 -9 28 -30 30
-25 3 -28 0 -28 -27z"/>
<path d="M929 2018 c0 -2 -3 -15 -5 -29 -4 -23 0 -27 25 -31 27 -4 30 -1 33
29 4 30 2 33 -24 33 -15 0 -28 -1 -29 -2z"/>
<path d="M964 1792 c-16 -11 -10 -36 9 -40 11 -2 17 3 17 17 0 23 -11 33 -26
23z"/>
<path d="M1681 1689 c0 -106 0 -109 22 -109 21 0 22 3 20 87 0 49 -2 95 -2
104 -1 9 -10 19 -21 22 -18 5 -19 -1 -19 -104z"/>
<path d="M4112 1791 c-9 -5 -13 -34 -14 -89 0 -53 -5 -82 -12 -83 -6 0 -22 -2
-34 -3 -17 -2 -27 4 -34 20 -15 33 -57 45 -91 27 -15 -7 -27 -20 -27 -28 0
-15 -6 -17 -35 -17 -32 0 -35 2 -26 25 14 36 -8 71 -44 75 -52 5 -80 -34 -64
-87 5 -16 -49 -24 -66 -10 -6 4 -10 44 -10 88 1 77 0 81 -21 81 -21 0 -21 -4
-20 -97 1 -112 8 -121 87 -116 120 7 192 1 213 -16 22 -19 76 -18 90 0 10 13
34 17 126 20 8 0 41 -1 73 -2 42 -2 61 2 68 12 5 8 9 55 9 105 0 70 -3 93 -14
97 -23 9 -26 -2 -26 -90 0 -59 -4 -83 -12 -84 -83 -7 -87 -4 -86 87 1 77 -7
99 -30 85z m-309 -129 c-12 -32 -16 -35 -29 -17 -10 13 -11 22 -3 31 14 18 39
6 32 -14z m172 -43 c8 -23 -7 -45 -24 -35 -12 8 -15 39 -4 49 12 12 22 7 28
-14z"/>
<path d="M904 1774 c3 -9 6 -18 6 -20 0 -2 7 -4 15 -4 8 0 15 9 15 20 0 14 -7
20 -21 20 -15 0 -19 -4 -15 -16z"/>
<path d="M1240 1698 c0 -51 4 -99 9 -106 6 -10 30 -14 77 -13 67 0 98 0 233 0
42 -1 67 4 72 13 5 7 9 55 9 106 0 85 -1 92 -20 92 -22 0 -22 2 -20 -97 1 -64
-1 -73 -17 -74 -98 -6 -99 -6 -73 31 l21 29 -23 15 c-53 34 -160 20 -153 -21
1 -10 7 -17 13 -16 9 2 50 -36 41 -38 -26 -7 -112 -2 -117 6 -4 5 -7 44 -8 85
0 69 -2 75 -22 78 -21 3 -22 0 -22 -90z m219 -27 c10 -6 10 -10 1 -16 -7 -4
-19 0 -28 9 -14 13 -14 16 -2 16 8 0 21 -4 29 -9z"/>
<path d="M1830 1770 c0 -13 7 -20 20 -20 13 0 20 7 20 20 0 13 -7 20 -20 20
-13 0 -20 -7 -20 -20z"/>
<path d="M1884 1770 c0 -13 7 -20 18 -20 11 0 18 7 18 20 0 13 -7 20 -18 20
-11 0 -18 -7 -18 -20z"/>
<path d="M2109 1773 c-5 -99 1 -178 14 -188 8 -6 41 -9 73 -7 33 2 68 3 79 3
229 -6 418 -2 428 8 7 7 12 48 12 106 1 92 0 95 -22 95 -21 0 -22 -4 -25 -87
l-3 -86 -33 -2 c-29 -1 -36 3 -50 34 -11 22 -29 40 -49 48 -31 12 -34 11 -72
-25 -35 -33 -40 -36 -43 -18 -2 10 -11 20 -20 22 -14 2 -18 -5 -18 -30 0 -30
-2 -31 -38 -30 -50 1 -58 7 -56 41 2 34 -12 54 -32 46 -10 -4 -13 -15 -10 -34
6 -37 -12 -55 -55 -54 l-34 1 -3 87 c-3 79 -5 87 -22 87 -12 0 -20 -7 -21 -17z
m431 -133 c6 -11 7 -20 3 -21 -76 -10 -91 -5 -67 22 22 25 51 24 64 -1z"/>
<path d="M2755 1692 c1 -103 7 -125 30 -115 12 4 15 26 14 109 -2 99 -3 104
-24 104 -20 0 -21 -4 -20 -98z"/>
<path d="M3298 1780 c-1 -5 -1 -39 0 -75 3 -56 6 -65 23 -65 19 0 21 6 21 75
0 69 -2 75 -21 75 -11 0 -21 -4 -23 -10z"/>
<path d="M3370 1718 c0 -85 -5 -95 -45 -101 -34 -4 -49 -36 -18 -38 93 -6 107
15 104 154 -1 50 -3 57 -21 57 -18 0 -20 -7 -20 -72z"/>
<path d="M3747 1784 c-14 -14 -7 -34 12 -34 12 0 18 6 17 17 -3 19 -18 27 -29
17z"/>
<path d="M3797 1784 c-14 -15 -6 -34 14 -34 14 0 19 5 17 17 -3 18 -20 27 -31
17z"/>
<path d="M2028 1758 c-8 -22 2 -36 21 -31 13 3 17 11 14 24 -6 21 -28 26 -35
7z"/>
<path d="M3110 1730 c0 -13 7 -20 19 -20 14 0 19 6 18 20 -1 12 -8 20 -19 20
-11 0 -18 -7 -18 -20z"/>
<path d="M3160 1730 c0 -15 5 -20 18 -18 9 2 17 10 17 18 0 8 -8 16 -17 18
-13 2 -18 -3 -18 -18z"/>
<path d="M907 1717 c-38 -31 -21 -107 25 -107 11 0 26 -7 32 -16 9 -12 32 -16
96 -17 47 0 95 3 107 7 44 14 43 94 -2 114 -42 19 -82 -3 -89 -50 -3 -25 -15
-34 -43 -33 -26 2 -28 5 -33 56 l-5 54 -36 2 c-20 1 -43 -3 -52 -10z m49 -50
c1 -9 -3 -17 -10 -17 -18 0 -25 10 -19 26 7 19 26 13 29 -9z m199 -18 c4 -12
2 -26 -5 -33 -17 -16 -44 22 -29 41 16 19 27 16 34 -8z"/>
<path d="M1828 1708 c-10 -10 -18 -26 -18 -36 0 -27 29 -62 52 -62 11 0 26 -7
33 -16 8 -12 29 -16 79 -17 79 -1 95 11 92 71 -2 46 -12 63 -32 55 -11 -4 -13
-15 -10 -39 6 -38 0 -44 -49 -48 -43 -5 -46 0 -47 63 l0 50 -41 -2 c-25 -1
-49 -9 -59 -19z m58 -41 c1 -9 -3 -17 -10 -17 -18 0 -25 10 -19 26 7 19 26 13
29 -9z"/>
<path d="M3054 1702 c-5 -4 -9 -13 -8 -19 1 -7 2 -22 3 -32 0 -11 11 -32 24
-46 19 -23 30 -26 92 -28 39 -1 76 2 83 6 12 8 18 108 6 119 -3 3 -13 4 -22 1
-14 -3 -17 -12 -14 -38 5 -40 -15 -54 -68 -49 -38 3 -60 25 -60 60 0 23 -20
37 -36 26z"/>
<path d="M2857 1682 c-28 -31 -15 -102 18 -102 26 0 26 -20 1 -30 -27 -10 -33
-24 -15 -35 18 -12 58 4 75 30 22 34 26 108 8 134 -19 26 -65 28 -87 3z m56
-26 c3 -8 0 -22 -8 -33 -13 -17 -14 -17 -20 0 -8 20 0 47 14 47 5 0 11 -6 14
-14z"/>
<path d="M3472 1688 c-32 -42 -14 -108 29 -108 18 0 19 -2 9 -15 -7 -8 -18
-15 -26 -15 -19 0 -24 -13 -10 -32 11 -15 15 -15 43 -2 38 19 53 51 53 114 0
39 -4 52 -19 60 -27 14 -66 13 -79 -2z m54 -33 c4 -8 3 -23 0 -32 -6 -15 -8
-15 -22 -2 -8 9 -12 23 -8 32 8 21 23 22 30 2z"/>
<path d="M2222 1533 c5 -26 37 -29 35 -4 -1 13 -8 21 -20 21 -12 0 -17 -6 -15
-17z"/>
<path d="M2273 1530 c-1 -14 4 -20 18 -20 12 0 19 7 19 20 0 13 -7 20 -18 20
-11 0 -18 -8 -19 -20z"/>
<path d="M590 1368 c0 -7 -6 -25 -14 -40 -8 -14 -19 -43 -26 -65 -7 -21 -16
-42 -20 -48 -4 -5 -17 -39 -30 -75 -13 -36 -28 -71 -33 -78 -15 -19 5 -29 48
-24 31 4 38 10 51 42 l15 37 65 -1 65 -1 11 -37 c11 -37 22 -44 68 -39 33 4
42 11 32 24 -5 6 -36 81 -67 165 l-58 152 -53 0 c-37 0 -54 -4 -54 -12z m87
-190 c-11 -6 -65 -3 -73 5 -2 2 6 32 18 66 l22 62 22 -63 c14 -42 18 -65 11
-70z"/>
<path d="M879 1378 c-1 -2 -3 -78 -3 -170 -2 -145 0 -168 14 -169 24 -1 163
-1 188 0 18 1 22 7 22 31 l0 30 -70 0 -70 0 -1 38 c0 20 -1 82 -2 137 l-2 100
-37 3 c-21 2 -39 2 -39 0z"/>
<path d="M1295 1216 c0 -90 3 -168 7 -171 4 -4 45 -7 90 -7 138 1 130 -1 126
30 -3 26 -5 27 -70 30 l-68 3 0 39 0 40 59 0 c55 0 59 2 63 25 7 33 -2 38 -68
38 l-54 0 0 39 c0 38 1 39 33 37 17 -1 47 -1 65 0 29 1 32 4 32 31 l0 30 -108
0 -108 0 1 -164z"/>
<path d="M1579 1363 c-4 -65 -1 -304 4 -316 4 -11 14 -13 39 -8 l33 7 -1 122
c-1 136 -4 135 56 20 21 -41 29 -48 55 -48 31 0 37 7 87 103 11 20 23 37 27
37 3 0 5 -53 4 -119 l-3 -119 30 -4 c16 -3 34 -2 39 1 6 4 9 75 8 171 l-2 165
-54 0 -53 0 -42 -76 -41 -75 -40 78 -40 78 -52 0 c-43 0 -53 -3 -54 -17z"/>
<path d="M2131 1358 c-5 -13 -36 -89 -69 -170 -56 -140 -58 -147 -38 -150 49
-7 75 3 81 33 9 38 19 44 87 44 57 1 57 1 73 -37 12 -31 20 -38 42 -39 28 -1
56 1 60 5 1 1 -19 58 -46 127 -53 136 -61 158 -59 162 1 1 -4 12 -11 25 -10
18 -20 22 -62 22 -42 0 -51 -3 -58 -22z m94 -177 c-4 -8 -80 -8 -80 -1 0 3 9
33 19 68 l20 63 23 -61 c12 -34 21 -65 18 -69z"/>
<path d="M2419 1363 c-5 -99 0 -316 7 -323 5 -4 24 -6 42 -3 34 6 35 8 33 81
-2 78 48 61 105 -35 13 -24 28 -43 32 -44 10 -1 121 -1 153 0 20 1 29 9 41 39
l15 39 64 -1 63 -1 15 -38 c7 -20 21 -38 30 -39 21 -2 65 3 69 7 4 4 -63 180
-103 275 l-24 55 -51 0 -52 0 -63 -160 c-34 -88 -65 -160 -68 -160 -3 0 -25
28 -50 61 -25 34 -50 65 -56 69 -7 4 1 15 20 28 59 40 63 113 8 146 -23 14
-53 19 -130 20 -89 2 -99 0 -100 -16z m170 -56 c13 -16 6 -57 -11 -69 -7 -4
-23 -8 -35 -8 -13 0 -26 0 -30 0 -5 0 -9 20 -10 45 l-2 45 38 0 c21 0 43 -6
50 -13z m357 -104 c5 -27 4 -28 -36 -29 -38 -1 -41 1 -36 20 3 12 10 43 17 69
l13 48 18 -40 c10 -23 21 -53 24 -68z"/>
<path d="M3070 1350 c0 -31 11 -36 76 -31 12 1 23 -4 26 -11 2 -7 4 -69 3
-138 0 -117 1 -125 20 -131 11 -3 30 -3 43 -1 22 4 22 7 22 144 l0 140 33 -2
c72 -4 79 -2 75 28 l-3 27 -147 3 -148 3 0 -31z"/>
<path d="M3562 1210 c-1 -168 0 -170 21 -171 12 0 49 -1 82 -2 94 -4 119 4
122 36 2 27 2 27 -68 27 l-69 0 0 140 0 140 -44 0 -44 0 0 -170z"/>
<path d="M3839 1378 c-1 -2 -2 -78 -3 -170 l-1 -167 23 -4 c13 -3 33 -2 43 0
18 5 19 17 19 174 l0 169 -40 0 c-22 0 -41 -1 -41 -2z"/>
<path d="M4005 1218 c0 -90 4 -168 8 -175 6 -10 49 -9 67 2 3 2 6 54 5 116
l-1 112 23 -29 c13 -16 43 -58 68 -94 70 -103 86 -117 129 -112 l36 4 0 170 0
169 -37 -3 -38 -3 -3 -114 -3 -113 -27 39 c-15 22 -51 74 -81 116 l-53 77 -47
0 -46 0 0 -162z"/>
<path d="M4429 1378 c-4 -10 -3 -338 1 -339 7 -1 181 -1 203 0 12 1 17 9 17
31 l0 30 -70 0 -70 0 0 40 0 40 58 0 c32 0 61 3 64 6 3 3 3 17 -1 32 -7 26
-10 27 -64 25 l-57 -2 0 39 0 39 61 -1 c64 -2 81 8 72 43 -5 17 -16 19 -109
19 -57 0 -104 -1 -105 -2z"/>
<path d="M3250 945 c-15 -18 -5 -35 20 -35 25 0 33 28 11 40 -14 7 -22 6 -31
-5z"/>
<path d="M883 931 c-53 -33 -71 -94 -43 -146 29 -54 153 -69 156 -18 1 18 -3
20 -25 13 -28 -8 -71 4 -83 23 -14 23 -8 63 13 86 18 19 29 22 60 18 32 -4 37
-2 36 14 -1 10 -1 19 -2 20 0 0 -18 2 -40 5 -28 3 -49 -2 -72 -15z"/>
<path d="M1752 940 c-28 -12 -38 -37 -24 -61 10 -15 7 -23 -14 -44 -18 -18
-23 -31 -19 -48 8 -26 32 -47 57 -48 10 -1 24 -2 31 -3 6 -1 26 4 42 10 24 10
35 10 54 -1 28 -14 57 -9 65 11 4 10 -2 14 -19 14 -34 0 -37 11 -14 58 23 45
19 75 -7 70 -10 -2 -18 -15 -20 -32 -4 -42 -19 -52 -43 -29 -19 18 -20 21 -6
33 47 39 -19 95 -83 70z m42 -26 c20 -8 21 -30 2 -37 -17 -7 -40 18 -31 33 7
12 8 12 29 4z m0 -85 c47 -22 41 -58 -10 -59 -32 0 -48 24 -34 49 13 24 12 24
44 10z"/>
<path d="M2101 933 c-44 -22 -66 -85 -48 -136 15 -45 90 -73 153 -56 27 8 31
13 32 46 3 61 -4 70 -46 69 -20 0 -40 -5 -44 -11 -10 -13 11 -35 28 -28 9 3
14 -2 14 -15 0 -25 -23 -34 -54 -22 -41 15 -49 77 -15 111 17 17 30 20 66 16
41 -4 44 -3 41 17 -3 18 -10 21 -50 22 -26 0 -61 -6 -77 -13z"/>
<path d="M2815 942 c-3 -3 -5 -50 -5 -104 0 -91 1 -98 20 -98 21 0 24 20 21
120 l-1 35 25 -47 c32 -61 52 -61 87 0 l27 47 1 -77 c0 -71 2 -78 20 -78 11 0
20 6 21 13 4 46 3 187 -1 188 -54 9 -62 4 -87 -44 l-24 -49 -21 43 c-12 24
-23 45 -24 47 -4 6 -53 9 -59 4z"/>
<path d="M3835 941 c-3 -2 -5 -48 -5 -102 l0 -97 50 -4 c27 -1 58 -1 68 2 29
7 13 36 -20 37 -46 2 -48 2 -48 23 0 16 7 20 35 20 28 0 35 4 35 20 0 16 -7
20 -35 20 -31 0 -35 3 -35 25 0 23 4 25 41 25 33 0 40 3 37 17 -3 14 -14 18
-61 18 -32 1 -60 -1 -62 -4z"/>
<path d="M1438 923 c-10 -2 -18 -13 -18 -24 0 -11 -4 -17 -10 -14 -5 3 -10 -3
-10 -14 0 -12 5 -21 10 -21 6 0 10 -20 10 -44 0 -48 24 -77 58 -71 9 2 20 4
25 4 13 2 2 26 -15 33 -13 5 -18 18 -18 43 0 28 4 35 20 35 11 0 20 4 20 9 0
13 -26 32 -33 24 -4 -3 -7 6 -7 20 0 15 -3 26 -7 26 -5 -1 -16 -3 -25 -6z"/>
<path d="M3562 919 c-13 -5 -20 -13 -17 -19 3 -6 -1 -13 -9 -16 -19 -7 -21
-34 -3 -34 9 0 14 -15 14 -47 1 -49 19 -74 51 -68 9 2 20 4 25 4 16 2 6 29
-13 34 -15 4 -20 14 -20 41 0 29 4 36 20 36 11 0 20 7 20 15 0 14 -10 18 -27
13 -4 -2 -10 9 -13 23 -4 23 -8 25 -28 18z"/>
<path d="M4163 922 c-15 -2 -23 -10 -23 -23 0 -10 -7 -19 -15 -19 -19 0 -15
-23 5 -31 10 -4 14 -18 12 -46 -3 -42 9 -61 47 -68 29 -5 49 31 21 38 -29 7
-29 72 0 80 13 3 18 11 14 20 -3 9 -12 13 -19 11 -9 -4 -15 3 -17 18 -2 17 -8
22 -25 20z"/>
<path d="M1063 879 c-54 -20 -55 -106 -1 -132 17 -8 38 -13 47 -12 9 2 21 4
28 4 22 2 53 44 53 72 0 56 -65 92 -127 68z m73 -44 c17 -44 -23 -84 -54 -53
-13 13 -16 50 -5 61 12 13 54 7 59 -8z"/>
<path d="M1233 882 c-6 -4 -11 -36 -11 -74 0 -65 1 -68 24 -68 21 0 23 5 26
53 3 48 5 52 28 52 23 0 24 -4 25 -50 0 -44 3 -50 23 -53 21 -3 22 0 22 62 0
56 -3 67 -21 76 -14 8 -29 8 -48 2 -15 -5 -34 -6 -42 -2 -8 5 -20 6 -26 2z"/>
<path d="M2293 866 c-48 -41 -23 -125 38 -128 49 -2 67 2 73 18 5 12 0 15 -22
13 -34 -3 -74 10 -67 22 4 5 28 9 55 9 46 0 48 1 45 26 -6 58 -75 80 -122 40z
m67 -16 c17 -11 11 -19 -19 -25 -20 -4 -29 13 -14 28 8 9 15 9 33 -3z"/>
<path d="M2454 882 c-5 -4 -9 -37 -9 -74 -1 -66 0 -68 25 -68 24 0 26 3 24 44
-2 52 7 69 32 64 20 -3 21 -6 23 -68 1 -35 4 -40 24 -40 21 0 23 4 21 58 -2
73 -1 70 -23 82 -14 7 -28 7 -47 0 -15 -6 -30 -7 -33 -3 -8 11 -25 13 -37 5z"/>
<path d="M3098 883 c-10 -3 -18 -11 -18 -20 0 -11 6 -14 24 -9 27 7 56 -1 56
-15 0 -5 -12 -9 -27 -9 -31 -1 -56 -17 -66 -42 -9 -24 28 -58 57 -51 11 3 36
4 55 4 l33 -2 -4 61 c-2 33 -9 65 -15 71 -12 12 -67 18 -95 12z m62 -95 c0
-13 -8 -18 -25 -18 -27 0 -28 1 -20 22 8 21 45 17 45 -4z"/>
<path d="M3249 888 c-8 -20 -5 -120 4 -132 16 -22 53 -28 67 -11 9 11 7 16 -9
25 -17 8 -21 20 -21 59 0 35 -4 51 -16 55 -17 6 -23 7 -25 4z"/>
<path d="M3360 880 c-11 -7 -15 -28 -15 -75 0 -64 1 -66 24 -63 22 3 25 8 26
46 3 62 3 64 28 60 20 -3 22 -9 22 -56 0 -51 1 -53 25 -50 24 3 25 7 25 62 0
50 -3 61 -23 74 -18 12 -28 13 -49 3 -16 -8 -29 -8 -37 -2 -7 6 -17 6 -26 1z"/>
<path d="M4014 880 c-46 -18 -39 -59 14 -84 42 -20 28 -39 -19 -26 -22 7 -29
5 -29 -5 0 -20 30 -33 65 -28 65 9 77 59 19 86 -39 19 -38 38 1 31 17 -3 25 0
25 10 0 24 -37 32 -76 16z"/>
<path d="M1530 761 c0 -23 23 -34 39 -18 19 19 12 37 -14 37 -18 0 -25 -5 -25
-19z"/>
<path d="M2630 761 c0 -23 19 -32 42 -19 24 12 11 38 -18 38 -17 0 -24 -6 -24
-19z"/>
<path d="M3654 769 c-3 -6 0 -17 8 -25 12 -12 17 -12 32 -1 11 8 16 19 12 25
-9 15 -43 15 -52 1z"/>
<path d="M4246 765 c-7 -18 25 -37 43 -25 8 4 11 15 8 24 -8 20 -43 21 -51 1z"/>
</g>
</svg>
